<?xml version="1.0"?>
<!-- Generated by SVGo -->
<svg width="500" height="1000"
     xmlns="http://www.w3.org/2000/svg"
     xmlns:xlink="http://www.w3.org/1999/xlink">
<rect x="0" y="0" width="500" height="1000" style="fill:white;" />
<rect x="94" y="944" width="76" height="76" style="fill:rgb(232,104,216);opacity:0.9;" />
<rect x="288" y="796" width="110" height="110" style="fill:rgb(164,153,203);opacity:0.85;" />
<rect x="477" y="416" width="35" height="35" style="fill:rgb(75,225,216);opacity:0.92;" />
<rect x="80" y="51" width="49" height="49" style="fill:rgb(210,31,24);opacity:0.82;" />
<rect x="362" y="104" width="62" height="62" style="fill:rgb(4,146,86);opacity:0.58;" />
<rect x="281" y="412" width="7" height="7" style="fill:rgb(232,48,77);opacity:0.13;" />
<rect x="157" y="91" width="5" height="5" style="fill:rgb(82,143,73);opacity:0.57;" />
<rect x="322" y="733" width="17" height="17" style="fill:rgb(135,246,119);opacity:0.22;" />
<rect x="270" y="789" width="124" height="124" style="fill:rgb(223,7,211);opacity:0.17;" />
<rect x="466" y="314" width="25" height="25" style="fill:rgb(34,189,49);opacity:0.72;" />
<rect x="359" y="931" width="43" height="43" style="fill:rgb(7,46,77);opacity:0.002;" />
<rect x="258" y="357" width="114" height="114" style="fill:rgb(235,132,248);opacity:0.64;" />
<rect x="236" y="72" width="63" height="63" style="fill:rgb(187,240,139);opacity:0.69;" />
<rect x="127" y="296" width="23" height="23" style="fill:rgb(199,26,186);opacity:0.036;" />
<rect x="169" y="365" width="76" height="76" style="fill:rgb(87,64,21);opacity:0.091;" />
<rect x="202" y="396" width="108" height="108" style="fill:rgb(99,209,177);opacity:0.59;" />
<rect x="166" y="607" width="86" height="86" style="fill:rgb(195,190,155);opacity:0.37;" />
<rect x="244" y="256" width="40" height="40" style="fill:rgb(86,69,25);opacity:0.77;" />
<rect x="158" y="530" width="93" height="93" style="fill:rgb(96,34,64);opacity:0.076;" />
<rect x="75" y="666" width="53" height="53" style="fill:rgb(33,80,109);opacity:0.46;" />
<rect x="221" y="248" width="44" height="44" style="fill:rgb(216,237,62);opacity:0.56;" />
<rect x="30" y="112" width="38" height="38" style="fill:rgb(59,89,85);opacity:0.48;" />
<rect x="497" y="889" width="123" height="123" style="fill:rgb(78,121,49);opacity:0.48;" />
<rect x="274" y="176" width="66" height="66" style="fill:rgb(174,227,41);opacity:0.2;" />
<rect x="372" y="535" width="106" height="106" style="fill:rgb(20,21,6);opacity:0.016;" />
<rect x="134" y="34" width="118" height="118" style="fill:rgb(137,188,68);opacity:0.62;" />
<rect x="407" y="624" width="17" height="17" style="fill:rgb(176,15,174);opacity:0.25;" />
<rect x="159" y="714" width="86" height="86" style="fill:rgb(203,124,181);opacity:0.73;" />
<rect x="490" y="29" width="21" height="21" style="fill:rgb(75,55,232);opacity:0.69;" />
<rect x="29" y="970" width="7" height="7" style="fill:rgb(59,36,120);opacity:0.045;" />
<rect x="114" y="149" width="39" height="39" style="fill:rgb(10,184,251);opacity:0.15;" />
<rect x="456" y="360" width="96" height="96" style="fill:rgb(52,34,34);opacity:0.51;" />
<rect x="169" y="824" width="37" height="37" style="fill:rgb(117,154,69);opacity:0.72;" />
<rect x="245" y="712" width="117" height="117" style="fill:rgb(247,211,44);opacity:0.87;" />
<rect x="462" y="234" width="99" height="99" style="fill:rgb(4,171,189);opacity:0.49;" />
<rect x="441" y="122" width="120" height="120" style="fill:rgb(249,248,87);opacity:0.86;" />
<rect x="153" y="683" width="51" height="51" style="fill:rgb(239,27,231);opacity:0.97;" />
<rect x="398" y="208" width="84" height="84" style="fill:rgb(108,139,84);opacity:0.3;" />
<rect x="495" y="566" width="0" height="0" style="fill:rgb(67,119,181);opacity:0.17;" />
<rect x="394" y="69" width="100" height="100" style="fill:rgb(227,56,238);opacity:0.82;" />
<rect x="104" y="643" width="48" height="48" style="fill:rgb(234,165,97);opacity:0.39;" />
<rect x="4" y="971" width="25" height="25" style="fill:rgb(203,24,250);opacity:0.14;" />
<rect x="106" y="792" width="70" height="70" style="fill:rgb(74,111,72);opacity:0.81;" />
<rect x="458" y="851" width="103" height="103" style="fill:rgb(208,36,33);opacity:0.12;" />
<rect x="131" y="46" width="37" height="37" style="fill:rgb(176,214,188);opacity:0.51;" />
<rect x="132" y="459" width="80" height="80" style="fill:rgb(118,219,134);opacity:0.35;" />
<rect x="295" y="736" width="68" height="68" style="fill:rgb(50,72,128);opacity:0.68;" />
<rect x="255" y="100" width="63" height="63" style="fill:rgb(40,200,165);opacity:0.68;" />
<rect x="1" y="92" width="25" height="25" style="fill:rgb(189,180,209);opacity:0.82;" />
<rect x="235" y="316" width="80" height="80" style="fill:rgb(7,36,124);opacity:0.41;" />
<rect x="398" y="256" width="29" height="29" style="fill:rgb(2,210,201);opacity:0.31;" />
<rect x="373" y="169" width="33" height="33" style="fill:rgb(134,238,45);opacity:0.14;" />
<rect x="388" y="343" width="56" height="56" style="fill:rgb(183,123,30);opacity:0.2;" />
<rect x="64" y="729" width="18" height="18" style="fill:rgb(154,216,103);opacity:0.9;" />
<rect x="74" y="374" width="54" height="54" style="fill:rgb(214,193,178);opacity:0.67;" />
<rect x="295" y="357" width="92" height="92" style="fill:rgb(34,31,103);opacity:0.59;" />
<rect x="449" y="820" width="106" height="106" style="fill:rgb(176,230,100);opacity:0.16;" />
<rect x="34" y="74" width="115" height="115" style="fill:rgb(137,113,55);opacity:0.87;" />
<rect x="483" y="450" width="57" height="57" style="fill:rgb(217,84,218);opacity:0.43;" />
<rect x="402" y="751" width="96" height="96" style="fill:rgb(120,75,147);opacity:0.58;" />
<rect x="246" y="949" width="23" height="23" style="fill:rgb(184,154,198);opacity:0.31;" />
<rect x="315" y="591" width="1" height="1" style="fill:rgb(14,211,5);opacity:0.26;" />
<rect x="474" y="798" width="95" height="95" style="fill:rgb(161,146,216);opacity:0.96;" />
<rect x="440" y="894" width="115" height="115" style="fill:rgb(196,203,102);opacity:0.49;" />
<rect x="453" y="840" width="50" height="50" style="fill:rgb(6,60,209);opacity:0.82;" />
<rect x="12" y="544" width="68" height="68" style="fill:rgb(5,25,170);opacity:0.59;" />
<rect x="176" y="550" width="85" height="85" style="fill:rgb(190,27,91);opacity:0.46;" />
<rect x="443" y="404" width="25" height="25" style="fill:rgb(127,40,62);opacity:0.55;" />
<rect x="260" y="219" width="121" height="121" style="fill:rgb(150,190,94);opacity:0.087;" />
<rect x="260" y="644" width="54" height="54" style="fill:rgb(232,199,97);opacity:0.6;" />
<rect x="122" y="987" width="54" height="54" style="fill:rgb(253,150,81);opacity:0.5;" />
<rect x="409" y="769" width="43" height="43" style="fill:rgb(23,137,102);opacity:0.43;" />
<rect x="186" y="879" width="56" height="56" style="fill:rgb(167,140,13);opacity:0.67;" />
<rect x="161" y="599" width="27" height="27" style="fill:rgb(195,125,236);opacity:0.055;" />
<rect x="493" y="535" width="50" height="50" style="fill:rgb(117,149,175);opacity:0.8;" />
<rect x="101" y="968" width="123" height="123" style="fill:rgb(64,162,249);opacity:0.91;" />
<rect x="457" y="12" width="12" height="12" style="fill:rgb(7,247,12);opacity:0.096;" />
<rect x="287" y="192" width="21" height="21" style="fill:rgb(86,98,0);opacity:0.88;" />
<rect x="156" y="114" width="23" height="23" style="fill:rgb(109,171,55);opacity:0.34;" />
<rect x="406" y="44" width="26" height="26" style="fill:rgb(215,209,18);opacity:0.35;" />
<rect x="80" y="409" width="51" height="51" style="fill:rgb(154,197,97);opacity:0.031;" />
<rect x="443" y="569" width="98" height="98" style="fill:rgb(48,37,190);opacity:0.84;" />
<rect x="50" y="211" width="74" height="74" style="fill:rgb(161,115,133);opacity:0.53;" />
<rect x="480" y="432" width="116" height="116" style="fill:rgb(231,170,7);opacity:0.33;" />
<rect x="496" y="254" width="103" height="103" style="fill:rgb(182,135,46);opacity:0.39;" />
<rect x="86" y="818" width="120" height="120" style="fill:rgb(98,227,7);opacity:0.55;" />
<rect x="366" y="6" width="61" height="61" style="fill:rgb(89,95,0);opacity:0.95;" />
<rect x="304" y="587" width="45" height="45" style="fill:rgb(23,83,180);opacity:0.4;" />
<rect x="96" y="116" width="9" height="9" style="fill:rgb(83,202,58);opacity:0.53;" />
<rect x="183" y="527" width="35" height="35" style="fill:rgb(90,29,43);opacity:0.34;" />
<rect x="173" y="317" width="100" height="100" style="fill:rgb(30,22,227);opacity:0.41;" />
<rect x="450" y="7" width="39" height="39" style="fill:rgb(142,191,81);opacity:0.6;" />
<rect x="72" y="792" width="103" height="103" style="fill:rgb(231,21,80);opacity:0.79;" />
<rect x="330" y="886" width="90" height="90" style="fill:rgb(159,86,155);opacity:0.68;" />
<rect x="415" y="394" width="115" height="115" style="fill:rgb(153,155,131);opacity:0.61;" />
<rect x="301" y="69" width="13" height="13" style="fill:rgb(132,46,144);opacity:0.047;" />
<rect x="161" y="528" width="10" height="10" style="fill:rgb(187,18,124);opacity:0.97;" />
<rect x="129" y="912" width="25" height="25" style="fill:rgb(167,34,62);opacity:0.42;" />
<rect x="118" y="988" width="98" height="98" style="fill:rgb(114,60,50);opacity:0.004;" />
<rect x="310" y="927" width="65" height="65" style="fill:rgb(68,38,231);opacity:0.96;" />
<rect x="66" y="112" width="107" height="107" style="fill:rgb(72,155,139);opacity:0.15;" />
<rect x="176" y="735" width="29" height="29" style="fill:rgb(183,194,85);opacity:0.9;" />
<rect x="401" y="20" width="65" height="65" style="fill:rgb(246,102,218);opacity:0.79;" />
<rect x="40" y="250" width="13" height="13" style="fill:rgb(162,188,139);opacity:0.28;" />
<rect x="428" y="3" width="84" height="84" style="fill:rgb(30,101,0);opacity:0.65;" />
<rect x="394" y="526" width="59" height="59" style="fill:rgb(0,171,201);opacity:0.46;" />
<rect x="349" y="620" width="102" height="102" style="fill:rgb(109,105,123);opacity:0.76;" />
<rect x="32" y="556" width="78" height="78" style="fill:rgb(85,215,210);opacity:0.62;" />
<rect x="150" y="388" width="93" height="93" style="fill:rgb(189,206,220);opacity:0.12;" />
<rect x="246" y="132" width="41" height="41" style="fill:rgb(48,164,30);opacity:0.13;" />
<rect x="226" y="203" width="45" height="45" style="fill:rgb(191,165,142);opacity:0.077;" />
<rect x="42" y="117" width="89" height="89" style="fill:rgb(46,61,59);opacity:0.085;" />
<rect x="405" y="358" width="45" height="45" style="fill:rgb(135,37,69);opacity:0.98;" />
<rect x="362" y="193" width="85" height="85" style="fill:rgb(163,195,179);opacity:0.56;" />
<rect x="188" y="866" width="72" height="72" style="fill:rgb(118,13,121);opacity:0.13;" />
<rect x="455" y="845" width="30" height="30" style="fill:rgb(240,22,23);opacity:0.26;" />
<rect x="22" y="219" width="84" height="84" style="fill:rgb(78,102,231);opacity:0.72;" />
<rect x="173" y="307" width="43" height="43" style="fill:rgb(106,11,198);opacity:0.44;" />
<rect x="104" y="941" width="46" height="46" style="fill:rgb(121,73,57);opacity:0.6;" />
<rect x="219" y="704" width="16" height="16" style="fill:rgb(223,25,200);opacity:0.37;" />
<rect x="38" y="599" width="99" height="99" style="fill:rgb(220,109,22);opacity:0.94;" />
<rect x="251" y="245" width="98" height="98" style="fill:rgb(222,224,165);opacity:0.34;" />
<rect x="452" y="478" width="7" height="7" style="fill:rgb(191,118,66);opacity:0.42;" />
<rect x="24" y="609" width="98" height="98" style="fill:rgb(30,224,36);opacity:0.036;" />
<rect x="148" y="244" width="2" height="2" style="fill:rgb(182,50,114);opacity:0.46;" />
<rect x="469" y="480" width="52" height="52" style="fill:rgb(142,184,211);opacity:0.57;" />
<rect x="279" y="299" width="113" height="113" style="fill:rgb(7,110,107);opacity:0.17;" />
<rect x="246" y="445" width="5" height="5" style="fill:rgb(52,194,138);opacity:0.37;" />
<rect x="311" y="451" width="46" height="46" style="fill:rgb(86,122,82);opacity:0.43;" />
<rect x="345" y="54" width="122" height="122" style="fill:rgb(103,128,231);opacity:0.058;" />
<rect x="428" y="861" width="45" height="45" style="fill:rgb(175,46,50);opacity:0.95;" />
<rect x="109" y="469" width="115" height="115" style="fill:rgb(165,127,60);opacity:0.0095;" />
<rect x="387" y="447" width="80" height="80" style="fill:rgb(39,177,3);opacity:0.73;" />
<rect x="335" y="410" width="13" height="13" style="fill:rgb(154,87,41);opacity:0.56;" />
<rect x="239" y="264" width="101" height="101" style="fill:rgb(170,232,242);opacity:0.86;" />
<rect x="437" y="935" width="121" height="121" style="fill:rgb(14,82,202);opacity:0.16;" />
<rect x="210" y="462" width="12" height="12" style="fill:rgb(36,25,32);opacity:0.7;" />
<rect x="23" y="632" width="10" height="10" style="fill:rgb(187,136,243);opacity:0.73;" />
<rect x="93" y="563" width="24" height="24" style="fill:rgb(114,95,4);opacity:0.12;" />
<rect x="497" y="268" width="67" height="67" style="fill:rgb(102,146,173);opacity:0.37;" />
<rect x="421" y="919" width="63" height="63" style="fill:rgb(158,4,35);opacity:0.073;" />
<rect x="433" y="472" width="90" height="90" style="fill:rgb(41,22,171);opacity:0.24;" />
<rect x="360" y="40" width="79" height="79" style="fill:rgb(137,193,40);opacity:0.34;" />
<rect x="159" y="231" width="90" height="90" style="fill:rgb(3,105,71);opacity:0.083;" />
<rect x="135" y="946" width="29" height="29" style="fill:rgb(55,186,2);opacity:0.68;" />
<rect x="281" y="299" width="34" height="34" style="fill:rgb(200,185,183);opacity:0.22;" />
<rect x="378" y="162" width="1" height="1" style="fill:rgb(104,117,233);opacity:0.76;" />
<rect x="276" y="954" width="25" height="25" style="fill:rgb(133,225,248);opacity:0.6;" />
<rect x="497" y="873" width="119" height="119" style="fill:rgb(53,161,45);opacity:0.27;" />
<rect x="298" y="997" width="108" height="108" style="fill:rgb(25,108,40);opacity:0.0069;" />
<rect x="283" y="605" width="65" height="65" style="fill:rgb(148,41,75);opacity:0.18;" />
<rect x="330" y="774" width="58" height="58" style="fill:rgb(89,214,96);opacity:0.77;" />
<rect x="55" y="229" width="112" height="112" style="fill:rgb(206,87,56);opacity:0.29;" />
<rect x="0" y="462" width="76" height="76" style="fill:rgb(209,51,2);opacity:0.97;" />
<rect x="230" y="130" width="46" height="46" style="fill:rgb(174,163,116);opacity:0.61;" />
<rect x="393" y="476" width="64" height="64" style="fill:rgb(44,161,131);opacity:0.55;" />
<rect x="103" y="941" width="59" height="59" style="fill:rgb(204,76,106);opacity:0.36;" />
<rect x="409" y="525" width="46" height="46" style="fill:rgb(202,116,252);opacity:0.39;" />
<rect x="387" y="479" width="116" height="116" style="fill:rgb(197,7,147);opacity:0.2;" />
<rect x="469" y="312" width="75" height="75" style="fill:rgb(105,34,178);opacity:0.81;" />
<rect x="29" y="502" width="106" height="106" style="fill:rgb(204,34,128);opacity:0.33;" />
<rect x="127" y="557" width="71" height="71" style="fill:rgb(112,147,179);opacity:0.64;" />
<rect x="23" y="565" width="96" height="96" style="fill:rgb(151,121,93);opacity:0.43;" />
<rect x="161" y="449" width="29" height="29" style="fill:rgb(67,94,184);opacity:0.21;" />
<rect x="365" y="739" width="111" height="111" style="fill:rgb(15,192,55);opacity:0.4;" />
<rect x="30" y="160" width="89" height="89" style="fill:rgb(190,40,85);opacity:0.29;" />
<rect x="398" y="342" width="51" height="51" style="fill:rgb(71,198,213);opacity:0.86;" />
<rect x="488" y="345" width="53" height="53" style="fill:rgb(55,215,10);opacity:0.12;" />
<rect x="319" y="807" width="99" height="99" style="fill:rgb(38,37,228);opacity:0.54;" />
<rect x="355" y="144" width="111" height="111" style="fill:rgb(181,57,135);opacity:0.89;" />
<rect x="350" y="878" width="100" height="100" style="fill:rgb(172,8,48);opacity:0.36;" />
<rect x="217" y="836" width="37" height="37" style="fill:rgb(213,57,144);opacity:0.36;" />
<rect x="80" y="876" width="78" height="78" style="fill:rgb(33,227,80);opacity:0.2;" />
<rect x="27" y="130" width="17" height="17" style="fill:rgb(42,238,56);opacity:0.54;" />
<rect x="482" y="89" width="31" height="31" style="fill:rgb(67,78,180);opacity:0.54;" />
<rect x="71" y="306" width="81" height="81" style="fill:rgb(222,40,118);opacity:0.15;" />
<rect x="160" y="923" width="2" height="2" style="fill:rgb(103,236,23);opacity:0.3;" />
<rect x="45" y="524" width="33" height="33" style="fill:rgb(86,112,240);opacity:0.34;" />
<rect x="162" y="365" width="34" height="34" style="fill:rgb(56,107,22);opacity:0.73;" />
<rect x="1" y="736" width="19" height="19" style="fill:rgb(111,40,7);opacity:0.88;" />
<rect x="274" y="592" width="14" height="14" style="fill:rgb(69,148,198);opacity:0.62;" />
<rect x="225" y="760" width="77" height="77" style="fill:rgb(141,79,186);opacity:0.67;" />
<rect x="149" y="981" width="6" height="6" style="fill:rgb(147,96,135);opacity:0.79;" />
<rect x="373" y="619" width="93" height="93" style="fill:rgb(52,103,43);opacity:0.89;" />
<rect x="181" y="991" width="34" height="34" style="fill:rgb(7,107,248);opacity:0.23;" />
<rect x="476" y="548" width="39" height="39" style="fill:rgb(155,14,103);opacity:0.39;" />
<rect x="342" y="448" width="39" height="39" style="fill:rgb(109,226,34);opacity:0.62;" />
<rect x="105" y="135" width="47" height="47" style="fill:rgb(64,119,126);opacity:0.89;" />
<rect x="180" y="587" width="112" height="112" style="fill:rgb(111,65,72);opacity:0.39;" />
<rect x="201" y="742" width="2" height="2" style="fill:rgb(111,251,135);opacity:0.62;" />
<rect x="195" y="768" width="66" height="66" style="fill:rgb(100,124,236);opacity:0.4;" />
<rect x="390" y="827" width="123" height="123" style="fill:rgb(78,92,233);opacity:0.24;" />
<rect x="161" y="245" width="65" height="65" style="fill:rgb(28,122,121);opacity:0.43;" />
<rect x="185" y="134" width="49" height="49" style="fill:rgb(169,127,48);opacity:0.45;" />
<rect x="324" y="986" width="1" height="1" style="fill:rgb(126,190,62);opacity:0.49;" />
<rect x="197" y="616" width="41" height="41" style="fill:rgb(42,182,63);opacity:0.13;" />
<rect x="302" y="388" width="33" height="33" style="fill:rgb(105,218,60);opacity:0.37;" />
<rect x="285" y="646" width="79" height="79" style="fill:rgb(85,149,70);opacity:1;" />
<rect x="434" y="614" width="38" height="38" style="fill:rgb(164,164,39);opacity:0.03;" />
<rect x="302" y="883" width="18" height="18" style="fill:rgb(145,51,28);opacity:0.39;" />
<rect x="190" y="798" width="19" height="19" style="fill:rgb(164,245,172);opacity:0.4;" />
<rect x="95" y="158" width="21" height="21" style="fill:rgb(145,183,91);opacity:0.77;" />
<rect x="294" y="856" width="14" height="14" style="fill:rgb(218,108,187);opacity:0.93;" />
<rect x="302" y="872" width="100" height="100" style="fill:rgb(246,49,99);opacity:0.78;" />
<rect x="73" y="102" width="106" height="106" style="fill:rgb(6,52,75);opacity:0.55;" />
<rect x="171" y="330" width="64" height="64" style="fill:rgb(0,105,63);opacity:0.28;" />
<rect x="482" y="971" width="71" height="71" style="fill:rgb(1,8,106);opacity:0.51;" />
<rect x="44" y="339" width="76" height="76" style="fill:rgb(188,195,230);opacity:0.38;" />
<rect x="204" y="227" width="13" height="13" style="fill:rgb(91,186,10);opacity:0.69;" />
<rect x="482" y="824" width="19" height="19" style="fill:rgb(111,200,103);opacity:0.19;" />
<rect x="66" y="66" width="43" height="43" style="fill:rgb(249,94,153);opacity:0.9;" />
<rect x="309" y="979" width="53" height="53" style="fill:rgb(148,169,175);opacity:0.8;" />
<rect x="182" y="868" width="83" height="83" style="fill:rgb(254,84,148);opacity:0.48;" />
<rect x="470" y="818" width="102" height="102" style="fill:rgb(174,44,82);opacity:0.074;" />
<rect x="452" y="376" width="111" height="111" style="fill:rgb(106,86,205);opacity:0.76;" />
<rect x="81" y="44" width="35" height="35" style="fill:rgb(185,11,94);opacity:0.37;" />
<rect x="167" y="217" width="99" height="99" style="fill:rgb(189,219,95);opacity:0.22;" />
<rect x="310" y="532" width="78" height="78" style="fill:rgb(233,132,82);opacity:0.26;" />
<rect x="219" y="63" width="37" height="37" style="fill:rgb(171,68,19);opacity:0.93;" />
<rect x="206" y="173" width="117" height="117" style="fill:rgb(72,38,78);opacity:0.44;" />
<rect x="340" y="945" width="56" height="56" style="fill:rgb(55,138,143);opacity:0.19;" />
<rect x="478" y="518" width="4" height="4" style="fill:rgb(134,211,54);opacity:0.019;" />
<rect x="346" y="251" width="112" height="112" style="fill:rgb(126,211,108);opacity:0.96;" />
<rect x="194" y="513" width="89" height="89" style="fill:rgb(167,41,182);opacity:0.25;" />
<rect x="89" y="232" width="63" height="63" style="fill:rgb(15,177,38);opacity:0.46;" />
<rect x="343" y="729" width="95" height="95" style="fill:rgb(241,95,113);opacity:0.63;" />
<rect x="25" y="705" width="14" height="14" style="fill:rgb(110,101,79);opacity:0.62;" />
<rect x="493" y="951" width="42" height="42" style="fill:rgb(18,200,222);opacity:0.49;" />
<rect x="268" y="338" width="109" height="109" style="fill:rgb(27,153,75);opacity:0.55;" />
<rect x="25" y="821" width="51" height="51" style="fill:rgb(141,129,102);opacity:0.81;" />
<rect x="458" y="352" width="64" height="64" style="fill:rgb(22,230,106);opacity:0.53;" />
<rect x="66" y="558" width="107" height="107" style="fill:rgb(157,141,128);opacity:0.43;" />
<rect x="95" y="934" width="124" height="124" style="fill:rgb(224,93,143);opacity:0.41;" />
<rect x="178" y="991" width="74" height="74" style="fill:rgb(104,77,63);opacity:0.65;" />
<rect x="347" y="847" width="92" height="92" style="fill:rgb(35,146,33);opacity:0.37;" />
<rect x="422" y="23" width="35" height="35" style="fill:rgb(151,106,45);opacity:0.12;" />
<rect x="18" y="641" width="89" height="89" style="fill:rgb(125,203,41);opacity:0.49;" />
<rect x="101" y="574" width="10" height="10" style="fill:rgb(240,244,36);opacity:0.38;" />
<rect x="235" y="935" width="28" height="28" style="fill:rgb(113,62,174);opacity:0.12;" />
<rect x="177" y="566" width="91" height="91" style="fill:rgb(92,12,83);opacity:0.35;" />
<rect x="297" y="895" width="44" height="44" style="fill:rgb(148,162,72);opacity:0.98;" />
<rect x="341" y="670" width="48" height="48" style="fill:rgb(79,104,228);opacity:0.64;" />
<rect x="94" y="942" width="112" height="112" style="fill:rgb(250,140,74);opacity:0.14;" />
<rect x="360" y="918" width="59" height="59" style="fill:rgb(240,72,151);opacity:0.88;" />
<rect x="195" y="185" width="88" height="88" style="fill:rgb(253,225,223);opacity:0.37;" />
<rect x="223" y="399" width="18" height="18" style="fill:rgb(148,240,61);opacity:0.39;" />
<rect x="471" y="964" width="98" height="98" style="fill:rgb(112,19,129);opacity:0.78;" />
<rect x="185" y="198" width="72" height="72" style="fill:rgb(92,247,0);opacity:0.38;" />
<rect x="281" y="193" width="89" height="89" style="fill:rgb(35,82,66);opacity:0.49;" />
<rect x="139" y="860" width="57" height="57" style="fill:rgb(215,4,81);opacity:0.91;" />
<rect x="338" y="134" width="88" height="88" style="fill:rgb(78,215,118);opacity:0.94;" />
<rect x="418" y="188" width="36" height="36" style="fill:rgb(55,63,13);opacity:0.78;" />
<rect x="287" y="524" width="80" height="80" style="fill:rgb(5,231,132);opacity:0.49;" />
<rect x="355" y="447" width="5" height="5" style="fill:rgb(65,15,65);opacity:0.43;" />
<rect x="385" y="20" width="92" height="92" style="fill:rgb(68,63,46);opacity:0.19;" />
<rect x="244" y="698" width="41" height="41" style="fill:rgb(163,50,115);opacity:0.92;" />
<rect x="398" y="418" width="111" height="111" style="fill:rgb(241,26,225);opacity:0.42;" />
<rect x="319" y="503" width="20" height="20" style="fill:rgb(220,152,7);opacity:0.97;" />
<rect x="368" y="777" width="59" height="59" style="fill:rgb(217,57,245);opacity:0.51;" />
<rect x="43" y="21" width="73" height="73" style="fill:rgb(135,23,68);opacity:0.33;" />
<rect x="222" y="586" width="28" height="28" style="fill:rgb(63,174,62);opacity:0.58;" />
<rect x="127" y="778" width="55" height="55" style="fill:rgb(51,38,95);opacity:0.8;" />
<rect x="25" y="546" width="116" height="116" style="fill:rgb(30,63,207);opacity:0.5;" />
<rect x="341" y="295" width="124" height="124" style="fill:rgb(39,53,199);opacity:0.75;" />
<rect x="354" y="456" width="24" height="24" style="fill:rgb(98,93,123);opacity:0.77;" />
<rect x="185" y="11" width="57" height="57" style="fill:rgb(133,212,81);opacity:0.53;" />
<rect x="13" y="97" width="89" height="89" style="fill:rgb(152,214,126);opacity:0.93;" />
<rect x="158" y="717" width="120" height="120" style="fill:rgb(226,138,141);opacity:0.23;" />
<rect x="329" y="408" width="53" height="53" style="fill:rgb(200,71,84);opacity:0.17;" />
<rect x="339" y="920" width="77" height="77" style="fill:rgb(157,155,119);opacity:0.34;" />
<rect x="11" y="612" width="87" height="87" style="fill:rgb(201,243,66);opacity:0.46;" />
<rect x="254" y="289" width="39" height="39" style="fill:rgb(218,166,152);opacity:0.25;" />
<rect x="92" y="78" width="35" height="35" style="fill:rgb(80,134,247);opacity:0.24;" />
<rect x="114" y="909" width="85" height="85" style="fill:rgb(196,168,43);opacity:0.78;" />
<rect x="345" y="248" width="121" height="121" style="fill:rgb(149,248,146);opacity:0.65;" />
<rect x="6" y="19" width="44" height="44" style="fill:rgb(69,14,14);opacity:0.3;" />
<rect x="354" y="156" width="73" height="73" style="fill:rgb(248,87,107);opacity:0.62;" />
<rect x="278" y="403" width="17" height="17" style="fill:rgb(95,26,251);opacity:0.75;" />
<rect x="278" y="20" width="46" height="46" style="fill:rgb(197,183,200);opacity:0.14;" />
<rect x="488" y="998" width="2" height="2" style="fill:rgb(141,218,242);opacity:0.89;" />
<rect x="390" y="816" width="105" height="105" style="fill:rgb(128,170,34);opacity:0.52;" />
<rect x="470" y="330" width="65" height="65" style="fill:rgb(58,15,199);opacity:0.68;" />
<rect x="277" y="755" width="89" height="89" style="fill:rgb(175,175,54);opacity:0.57;" />
<rect x="479" y="681" width="49" height="49" style="fill:rgb(185,223,28);opacity:0.84;" />
<rect x="404" y="854" width="10" height="10" style="fill:rgb(90,167,22);opacity:0.31;" />
<rect x="487" y="21" width="97" height="97" style="fill:rgb(23,157,241);opacity:0.65;" />
<rect x="430" y="613" width="118" height="118" style="fill:rgb(120,34,120);opacity:0.85;" />
<rect x="426" y="644" width="1" height="1" style="fill:rgb(80,241,189);opacity:0.9;" />
<rect x="388" y="355" width="5" height="5" style="fill:rgb(51,117,113);opacity:0.92;" />
<rect x="80" y="17" width="3" height="3" style="fill:rgb(137,42,200);opacity:0.56;" />
<rect x="496" y="57" width="103" height="103" style="fill:rgb(27,187,219);opacity:0.52;" />
<rect x="269" y="865" width="97" height="97" style="fill:rgb(207,182,239);opacity:0.64;" />
<rect x="147" y="893" width="87" height="87" style="fill:rgb(1,197,109);opacity:0.7;" />
<rect x="59" y="948" width="12" height="12" style="fill:rgb(174,1,217);opacity:0.25;" />
<rect x="422" y="428" width="49" height="49" style="fill:rgb(138,119,216);opacity:0.63;" />
<rect x="286" y="465" width="107" height="107" style="fill:rgb(252,165,63);opacity:0.14;" />
<rect x="191" y="61" width="27" height="27" style="fill:rgb(68,151,125);opacity:0.7;" />
<rect x="139" y="504" width="48" height="48" style="fill:rgb(242,56,74);opacity:0.34;" />
<rect x="74" y="280" width="24" height="24" style="fill:rgb(182,57,80);opacity:0.0028;" />
<rect x="431" y="783" width="0" height="0" style="fill:rgb(83,209,85);opacity:0.75;" />
<rect x="480" y="158" width="121" height="121" style="fill:rgb(6,200,169);opacity:0.013;" />
<rect x="114" y="595" width="88" height="88" style="fill:rgb(107,121,221);opacity:0.25;" />
<rect x="228" y="48" width="118" height="118" style="fill:rgb(6,224,59);opacity:0.67;" />
<rect x="203" y="142" width="53" height="53" style="fill:rgb(66,170,98);opacity:0.83;" />
<rect x="366" y="242" width="51" height="51" style="fill:rgb(87,248,91);opacity:0.17;" />
<rect x="27" y="511" width="89" height="89" style="fill:rgb(44,225,3);opacity:0.21;" />
<rect x="377" y="26" width="43" height="43" style="fill:rgb(176,128,22);opacity:0.19;" />
<rect x="362" y="135" width="46" height="46" style="fill:rgb(216,118,128);opacity:0.22;" />
<rect x="446" y="586" width="29" height="29" style="fill:rgb(212,184,70);opacity:0.61;" />
<rect x="499" y="143" width="96" height="96" style="fill:rgb(182,53,231);opacity:0.37;" />
<rect x="446" y="948" width="95" height="95" style="fill:rgb(17,222,156);opacity:0.91;" />
<rect x="156" y="269" width="77" height="77" style="fill:rgb(118,244,216);opacity:0.31;" />
<rect x="61" y="190" width="36" height="36" style="fill:rgb(182,176,216);opacity:0.89;" />
<rect x="87" y="978" width="68" height="68" style="fill:rgb(229,35,67);opacity:0.4;" />
<rect x="298" y="355" width="22" height="22" style="fill:rgb(37,48,183);opacity:0.21;" />
<rect x="339" y="711" width="87" height="87" style="fill:rgb(69,110,155);opacity:0.4;" />
<rect x="205" y="885" width="34" height="34" style="fill:rgb(197,247,109);opacity:0.88;" />
<rect x="92" y="897" width="81" height="81" style="fill:rgb(48,2,254);opacity:0.81;" />
<rect x="197" y="8" width="25" height="25" style="fill:rgb(14,186,178);opacity:0.83;" />
<rect x="116" y="346" width="41" height="41" style="fill:rgb(17,46,193);opacity:0.41;" />
<rect x="420" y="580" width="79" height="79" style="fill:rgb(249,111,116);opacity:0.78;" />
<rect x="346" y="633" width="36" height="36" style="fill:rgb(208,122,248);opacity:0.79;" />
<rect x="116" y="292" width="120" height="120" style="fill:rgb(231,5,6);opacity:0.55;" />
<rect x="494" y="482" width="89" height="89" style="fill:rgb(131,111,194);opacity:0.32;" />
<rect x="122" y="464" width="119" height="119" style="fill:rgb(187,104,243);opacity:0.32;" />
<rect x="83" y="837" width="48" height="48" style="fill:rgb(167,190,140);opacity:0.96;" />
<rect x="393" y="502" width="78" height="78" style="fill:rgb(36,230,243);opacity:0.13;" />
</svg>
